<mxfile host="drawio-plugin" modified="2021-06-14T04:46:46.114Z" agent="5.0 (Windows NT 6.2; Win64; x64) AppleWebKit/537.36 (KHTML, like Gecko) Chrome/87.0.4280.141 Safari/537.36" etag="s_Sxk5XZfMjQVlVEpkd8" version="14.6.6" type="embed"><diagram name="Page-1" id="edf60f1a-56cd-e834-aa8a-f176f3a09ee4"><mxGraphModel dx="1033" dy="783" grid="1" gridSize="10" guides="1" tooltips="1" connect="1" arrows="1" fold="1" page="1" pageScale="1" pageWidth="1100" pageHeight="850" background="none" math="0" shadow="0"><root><mxCell id="0"/><mxCell id="1" parent="0"/><mxCell id="60e70716793133e9-32" style="edgeStyle=orthogonalEdgeStyle;rounded=0;html=1;labelBackgroundColor=none;startSize=5;endArrow=classicThin;endFill=1;endSize=5;jettySize=auto;orthogonalLoop=1;strokeWidth=1;fontFamily=Verdana;fontSize=8" parent="1" source="60e70716793133e9-4" target="60e70716793133e9-5" edge="1"><mxGeometry relative="1" as="geometry"/></mxCell><mxCell id="60e70716793133e9-4" value="Order a product" style="rounded=0;whiteSpace=wrap;html=1;shadow=1;labelBackgroundColor=none;strokeWidth=1;fontFamily=Verdana;fontSize=8;align=center;" parent="1" vertex="1"><mxGeometry x="190" y="130" width="120" height="50" as="geometry"/></mxCell><mxCell id="60e70716793133e9-33" value="Yes" style="edgeStyle=orthogonalEdgeStyle;rounded=0;html=1;labelBackgroundColor=none;startSize=5;endArrow=classicThin;endFill=1;endSize=5;jettySize=auto;orthogonalLoop=1;strokeWidth=1;fontFamily=Verdana;fontSize=8" parent="1" source="60e70716793133e9-5" edge="1"><mxGeometry x="-0.7778" y="10" relative="1" as="geometry"><mxPoint as="offset"/><mxPoint x="390.0000000000001" y="250" as="targetPoint"/></mxGeometry></mxCell><mxCell id="60e70716793133e9-37" value="No" style="edgeStyle=orthogonalEdgeStyle;rounded=0;html=1;labelBackgroundColor=none;startSize=5;endArrow=classicThin;endFill=1;endSize=5;jettySize=auto;orthogonalLoop=1;strokeWidth=1;fontFamily=Verdana;fontSize=8" parent="1" source="60e70716793133e9-5" target="60e70716793133e9-9" edge="1"><mxGeometry x="-0.5" y="10" relative="1" as="geometry"><mxPoint as="offset"/></mxGeometry></mxCell><mxCell id="60e70716793133e9-5" value="Active&lt;br&gt;Subscription" style="rhombus;whiteSpace=wrap;html=1;rounded=0;shadow=1;labelBackgroundColor=none;strokeWidth=1;fontFamily=Verdana;fontSize=8;align=center;fillColor=#008a00;strokeColor=#005700;fontColor=#ffffff;" parent="1" vertex="1"><mxGeometry x="200" y="220" width="100" height="60" as="geometry"/></mxCell><mxCell id="60e70716793133e9-38" style="edgeStyle=orthogonalEdgeStyle;rounded=0;html=1;labelBackgroundColor=none;startSize=5;endArrow=classicThin;endFill=1;endSize=5;jettySize=auto;orthogonalLoop=1;strokeWidth=1;fontFamily=Verdana;fontSize=8" parent="1" source="60e70716793133e9-9" edge="1"><mxGeometry relative="1" as="geometry"><mxPoint x="250" y="410" as="targetPoint"/></mxGeometry></mxCell><mxCell id="60e70716793133e9-9" value="Cancel Incomplete Orders" style="whiteSpace=wrap;html=1;rounded=0;shadow=1;labelBackgroundColor=none;strokeWidth=1;fontFamily=Verdana;fontSize=8;align=center;fillColor=#008a00;strokeColor=#005700;fontColor=#ffffff;" parent="1" vertex="1"><mxGeometry x="190" y="320" width="120" height="40" as="geometry"/></mxCell><mxCell id="60e70716793133e9-13" value="Create Order" style="whiteSpace=wrap;html=1;rounded=0;shadow=1;labelBackgroundColor=none;strokeWidth=1;fontFamily=Verdana;fontSize=8;align=center;" parent="1" vertex="1"><mxGeometry x="190" y="480" width="120" height="40" as="geometry"/></mxCell><mxCell id="60e70716793133e9-47" value="Yes" style="edgeStyle=orthogonalEdgeStyle;rounded=0;html=1;labelBackgroundColor=none;startSize=5;endArrow=classicThin;endFill=1;endSize=5;jettySize=auto;orthogonalLoop=1;strokeWidth=1;fontFamily=Verdana;fontSize=8;exitX=1;exitY=0.5;exitDx=0;exitDy=0;" parent="1" source="2" edge="1"><mxGeometry x="-0.6667" y="10" relative="1" as="geometry"><mxPoint as="offset"/><mxPoint x="430" y="700" as="sourcePoint"/><mxPoint x="390" y="690" as="targetPoint"/></mxGeometry></mxCell><mxCell id="60e70716793133e9-57" style="edgeStyle=orthogonalEdgeStyle;rounded=0;html=1;labelBackgroundColor=none;startSize=5;endArrow=classicThin;endFill=1;endSize=5;jettySize=auto;orthogonalLoop=1;strokeWidth=1;fontFamily=Verdana;fontSize=8" parent="1" target="60e70716793133e9-30" edge="1"><mxGeometry relative="1" as="geometry"><mxPoint x="250" y="1070" as="sourcePoint"/></mxGeometry></mxCell><mxCell id="60e70716793133e9-30" value="End" style="strokeWidth=1;html=1;shape=mxgraph.flowchart.terminator;whiteSpace=wrap;rounded=0;shadow=1;labelBackgroundColor=none;fontFamily=Verdana;fontSize=8;align=center;" parent="1" vertex="1"><mxGeometry x="220" y="1120" width="60" height="30" as="geometry"/></mxCell><mxCell id="h5wP9rXDmQSZF2Uznjk0-1" value="End" style="strokeWidth=1;html=1;shape=mxgraph.flowchart.terminator;whiteSpace=wrap;rounded=0;shadow=1;labelBackgroundColor=none;fontFamily=Verdana;fontSize=8;align=center;fillColor=#e51400;strokeColor=#B20000;fontColor=#ffffff;" parent="1" vertex="1"><mxGeometry x="390" y="235" width="60" height="30" as="geometry"/></mxCell><mxCell id="h5wP9rXDmQSZF2Uznjk0-13" value="" style="edgeStyle=orthogonalEdgeStyle;rounded=0;orthogonalLoop=1;jettySize=auto;html=1;" parent="1" source="h5wP9rXDmQSZF2Uznjk0-5" target="60e70716793133e9-13" edge="1"><mxGeometry relative="1" as="geometry"/></mxCell><mxCell id="h5wP9rXDmQSZF2Uznjk0-5" value="Pending&lt;br&gt;Orders" style="rhombus;whiteSpace=wrap;html=1;rounded=0;shadow=1;labelBackgroundColor=none;strokeWidth=1;fontFamily=Verdana;fontSize=8;align=center;fillColor=#008a00;strokeColor=#005700;fontColor=#ffffff;" parent="1" vertex="1"><mxGeometry x="200" y="390" width="100" height="60" as="geometry"/></mxCell><mxCell id="h5wP9rXDmQSZF2Uznjk0-6" value="Yes" style="edgeStyle=orthogonalEdgeStyle;rounded=0;html=1;labelBackgroundColor=none;startSize=5;endArrow=classicThin;endFill=1;endSize=5;jettySize=auto;orthogonalLoop=1;strokeWidth=1;fontFamily=Verdana;fontSize=8" parent="1" edge="1"><mxGeometry x="-0.7778" y="10" relative="1" as="geometry"><mxPoint as="offset"/><mxPoint x="300" y="419.76" as="sourcePoint"/><mxPoint x="390.0000000000001" y="419.76" as="targetPoint"/></mxGeometry></mxCell><mxCell id="h5wP9rXDmQSZF2Uznjk0-8" value="Cancel Payment Intent" style="whiteSpace=wrap;html=1;rounded=0;shadow=1;labelBackgroundColor=none;strokeWidth=1;fontFamily=Verdana;fontSize=8;align=center;fillColor=#e3c800;strokeColor=#B09500;fontColor=#000000;" parent="1" vertex="1"><mxGeometry x="390" y="400" width="120" height="40" as="geometry"/></mxCell><mxCell id="h5wP9rXDmQSZF2Uznjk0-9" value="Cancel Pending Orders" style="whiteSpace=wrap;html=1;rounded=0;shadow=1;labelBackgroundColor=none;strokeWidth=1;fontFamily=Verdana;fontSize=8;align=center;fillColor=#008a00;strokeColor=#005700;fontColor=#ffffff;" parent="1" vertex="1"><mxGeometry x="390" y="480" width="120" height="40" as="geometry"/></mxCell><mxCell id="h5wP9rXDmQSZF2Uznjk0-11" style="edgeStyle=orthogonalEdgeStyle;rounded=0;html=1;labelBackgroundColor=none;startSize=5;endArrow=classicThin;endFill=1;endSize=5;jettySize=auto;orthogonalLoop=1;strokeWidth=1;fontFamily=Verdana;fontSize=8" parent="1" edge="1"><mxGeometry relative="1" as="geometry"><mxPoint x="249.76" y="520" as="sourcePoint"/><mxPoint x="249.76" y="550" as="targetPoint"/></mxGeometry></mxCell><mxCell id="3" value="" style="edgeStyle=orthogonalEdgeStyle;rounded=0;orthogonalLoop=1;jettySize=auto;html=1;" parent="1" target="2" edge="1"><mxGeometry relative="1" as="geometry"><mxPoint x="250" y="590" as="sourcePoint"/></mxGeometry></mxCell><mxCell id="h5wP9rXDmQSZF2Uznjk0-14" value="" style="edgeStyle=orthogonalEdgeStyle;rounded=0;orthogonalLoop=1;jettySize=auto;html=1;entryX=0.5;entryY=0;entryDx=0;entryDy=0;" parent="1" target="h5wP9rXDmQSZF2Uznjk0-9" edge="1"><mxGeometry relative="1" as="geometry"><mxPoint x="449.52" y="440" as="sourcePoint"/><mxPoint x="449.52" y="470" as="targetPoint"/></mxGeometry></mxCell><mxCell id="h5wP9rXDmQSZF2Uznjk0-15" value="" style="edgeStyle=orthogonalEdgeStyle;rounded=0;orthogonalLoop=1;jettySize=auto;html=1;entryX=1;entryY=0.5;entryDx=0;entryDy=0;exitX=0;exitY=0.5;exitDx=0;exitDy=0;" parent="1" source="h5wP9rXDmQSZF2Uznjk0-9" target="60e70716793133e9-13" edge="1"><mxGeometry relative="1" as="geometry"><mxPoint x="459.52" y="450" as="sourcePoint"/><mxPoint x="460" y="490" as="targetPoint"/></mxGeometry></mxCell><mxCell id="2" value="Already Exists" style="rhombus;whiteSpace=wrap;html=1;rounded=0;shadow=1;fontFamily=Verdana;fontSize=8;strokeWidth=1;fillColor=#008a00;strokeColor=#005700;fontColor=#ffffff;" parent="1" vertex="1"><mxGeometry x="250" y="650" width="80" height="80" as="geometry"/></mxCell><mxCell id="4" value="Loop&amp;nbsp;&lt;br&gt;order items" style="html=1;dashed=0;whitespace=wrap;shape=mxgraph.dfd.loop" parent="1" vertex="1"><mxGeometry x="190" y="550" width="120" height="40" as="geometry"/></mxCell><mxCell id="5" value="End" style="strokeWidth=1;html=1;shape=mxgraph.flowchart.terminator;whiteSpace=wrap;rounded=0;shadow=1;labelBackgroundColor=none;fontFamily=Verdana;fontSize=8;align=center;fillColor=#e51400;strokeColor=#B20000;fontColor=#ffffff;" parent="1" vertex="1"><mxGeometry x="390" y="675" width="60" height="30" as="geometry"/></mxCell><mxCell id="8" value="Trial" style="rhombus;whiteSpace=wrap;html=1;rounded=0;shadow=1;fontFamily=Verdana;fontSize=8;strokeWidth=1;" vertex="1" parent="1"><mxGeometry x="250" y="770" width="80" height="80" as="geometry"/></mxCell><mxCell id="12" value="No" style="edgeStyle=orthogonalEdgeStyle;rounded=0;html=1;labelBackgroundColor=none;startSize=5;endArrow=classicThin;endFill=1;endSize=5;jettySize=auto;orthogonalLoop=1;strokeWidth=1;fontFamily=Verdana;fontSize=8;exitX=0.5;exitY=1;exitDx=0;exitDy=0;" edge="1" parent="1" source="2" target="8"><mxGeometry x="-0.6667" y="10" relative="1" as="geometry"><mxPoint as="offset"/><mxPoint x="340" y="700" as="sourcePoint"/><mxPoint x="400" y="700" as="targetPoint"/></mxGeometry></mxCell><mxCell id="15" value="Yes" style="edgeStyle=orthogonalEdgeStyle;rounded=0;html=1;labelBackgroundColor=none;startSize=5;endArrow=classicThin;endFill=1;endSize=5;jettySize=auto;orthogonalLoop=1;strokeWidth=1;fontFamily=Verdana;fontSize=8;exitX=1;exitY=0.5;exitDx=0;exitDy=0;" edge="1" parent="1" source="8"><mxGeometry x="-0.6667" y="10" relative="1" as="geometry"><mxPoint as="offset"/><mxPoint x="340" y="700" as="sourcePoint"/><mxPoint x="400" y="810" as="targetPoint"/></mxGeometry></mxCell><mxCell id="16" value="Create Trial Order Item" style="whiteSpace=wrap;html=1;rounded=0;shadow=1;labelBackgroundColor=none;strokeWidth=1;fontFamily=Verdana;fontSize=8;align=center;" vertex="1" parent="1"><mxGeometry x="400" y="790" width="120" height="40" as="geometry"/></mxCell><mxCell id="17" value="No" style="edgeStyle=orthogonalEdgeStyle;rounded=0;html=1;labelBackgroundColor=none;startSize=5;endArrow=classicThin;endFill=1;endSize=5;jettySize=auto;orthogonalLoop=1;strokeWidth=1;fontFamily=Verdana;fontSize=8;entryX=0.5;entryY=0;entryDx=0;entryDy=0;" edge="1" parent="1" target="18"><mxGeometry x="-0.6667" y="10" relative="1" as="geometry"><mxPoint as="offset"/><mxPoint x="290" y="850" as="sourcePoint"/><mxPoint x="300" y="780" as="targetPoint"/></mxGeometry></mxCell><mxCell id="18" value="Create Order Item" style="whiteSpace=wrap;html=1;rounded=0;shadow=1;labelBackgroundColor=none;strokeWidth=1;fontFamily=Verdana;fontSize=8;align=center;" vertex="1" parent="1"><mxGeometry x="230" y="890" width="120" height="40" as="geometry"/></mxCell><mxCell id="19" value="Apply Coupon Discount" style="whiteSpace=wrap;html=1;rounded=0;shadow=1;labelBackgroundColor=none;strokeWidth=1;fontFamily=Verdana;fontSize=8;align=center;" vertex="1" parent="1"><mxGeometry x="230" y="960" width="120" height="40" as="geometry"/></mxCell><mxCell id="20" style="edgeStyle=orthogonalEdgeStyle;rounded=0;html=1;labelBackgroundColor=none;startSize=5;endArrow=classicThin;endFill=1;endSize=5;jettySize=auto;orthogonalLoop=1;strokeWidth=1;fontFamily=Verdana;fontSize=8" edge="1" parent="1"><mxGeometry relative="1" as="geometry"><mxPoint x="289.76" y="930" as="sourcePoint"/><mxPoint x="289.76" y="960" as="targetPoint"/><Array as="points"><mxPoint x="289.96" y="940"/><mxPoint x="289.96" y="940"/></Array></mxGeometry></mxCell><mxCell id="22" value="Apply Coupon on Next recurring Payment Only" style="whiteSpace=wrap;html=1;rounded=0;shadow=1;labelBackgroundColor=none;strokeWidth=1;fontFamily=Verdana;fontSize=8;align=center;fillColor=#008a00;strokeColor=#005700;fontColor=#ffffff;" vertex="1" parent="1"><mxGeometry x="400" y="960" width="120" height="40" as="geometry"/></mxCell><mxCell id="26" value="" style="endArrow=classic;html=1;entryX=0.5;entryY=0;entryDx=0;entryDy=0;exitX=0.5;exitY=1;exitDx=0;exitDy=0;" edge="1" parent="1" source="16" target="22"><mxGeometry width="50" height="50" relative="1" as="geometry"><mxPoint x="370" y="980" as="sourcePoint"/><mxPoint x="420" y="930" as="targetPoint"/></mxGeometry></mxCell><mxCell id="27" style="edgeStyle=orthogonalEdgeStyle;rounded=0;html=1;labelBackgroundColor=none;startSize=5;endArrow=classicThin;endFill=1;endSize=5;jettySize=auto;orthogonalLoop=1;strokeWidth=1;fontFamily=Verdana;fontSize=8" edge="1" parent="1" target="28"><mxGeometry relative="1" as="geometry"><mxPoint x="419.9999999999999" y="1070" as="sourcePoint"/></mxGeometry></mxCell><mxCell id="28" value="End" style="strokeWidth=1;html=1;shape=mxgraph.flowchart.terminator;whiteSpace=wrap;rounded=0;shadow=1;labelBackgroundColor=none;fontFamily=Verdana;fontSize=8;align=center;" vertex="1" parent="1"><mxGeometry x="390" y="1120" width="60" height="30" as="geometry"/></mxCell><mxCell id="29" value="Payment Intent&lt;br&gt;with discount" style="whiteSpace=wrap;html=1;rounded=0;shadow=1;labelBackgroundColor=none;strokeWidth=1;fontFamily=Verdana;fontSize=8;align=center;" vertex="1" parent="1"><mxGeometry x="190" y="1030" width="120" height="40" as="geometry"/></mxCell><mxCell id="30" style="edgeStyle=orthogonalEdgeStyle;rounded=0;html=1;labelBackgroundColor=none;startSize=5;endArrow=classicThin;endFill=1;endSize=5;jettySize=auto;orthogonalLoop=1;strokeWidth=1;fontFamily=Verdana;fontSize=8" edge="1" parent="1"><mxGeometry relative="1" as="geometry"><mxPoint x="249.76" y="1000" as="sourcePoint"/><mxPoint x="249.76" y="1030" as="targetPoint"/><Array as="points"><mxPoint x="249.95999999999998" y="1010"/><mxPoint x="249.95999999999998" y="1010"/></Array></mxGeometry></mxCell><mxCell id="31" value="Authorize $1 Verification&lt;br&gt;Payment Intent" style="whiteSpace=wrap;html=1;rounded=0;shadow=1;labelBackgroundColor=none;strokeWidth=1;fontFamily=Verdana;fontSize=8;align=center;" vertex="1" parent="1"><mxGeometry x="360" y="1030" width="120" height="40" as="geometry"/></mxCell><mxCell id="32" style="edgeStyle=orthogonalEdgeStyle;rounded=0;html=1;labelBackgroundColor=none;startSize=5;endArrow=classicThin;endFill=1;endSize=5;jettySize=auto;orthogonalLoop=1;strokeWidth=1;fontFamily=Verdana;fontSize=8" edge="1" parent="1"><mxGeometry relative="1" as="geometry"><mxPoint x="419.76" y="1000" as="sourcePoint"/><mxPoint x="419.76" y="1030" as="targetPoint"/><Array as="points"><mxPoint x="419.96" y="1010"/><mxPoint x="419.96" y="1010"/></Array></mxGeometry></mxCell></root></mxGraphModel></diagram></mxfile>